<svg width="145" height="34" viewBox="0 0 145 34" fill="none" xmlns="http://www.w3.org/2000/svg">
<rect x="64" y="1" width="81" height="33" fill="url(#paint0_linear_25_2)"/>
<path d="M2.28 30V7.8H10.53C12.11 7.8 13.44 8.11 14.52 8.73C15.62 9.33 16.45 10.13 17.01 11.13C17.57 12.11 17.85 13.18 17.85 14.34C17.85 15.74 17.45 17.01 16.65 18.15C15.87 19.29 14.72 20.09 13.2 20.55L18.54 30H14.61L9.57 20.94H5.79V30H2.28ZM10.47 10.86H5.79V18H10.47C11.73 18 12.68 17.64 13.32 16.92C13.96 16.18 14.28 15.35 14.28 14.43C14.28 13.51 13.96 12.69 13.32 11.97C12.68 11.23 11.73 10.86 10.47 10.86ZM28.4344 30.3C27.0944 30.3 25.9344 30.07 24.9544 29.61C23.9944 29.13 23.1944 28.5 22.5544 27.72C21.9344 26.92 21.4644 26.03 21.1444 25.05C20.8444 24.07 20.6944 23.07 20.6944 22.05C20.6944 21.05 20.8444 20.06 21.1444 19.08C21.4444 18.1 21.9044 17.21 22.5244 16.41C23.1444 15.61 23.9344 14.98 24.8944 14.52C25.8544 14.04 26.9844 13.8 28.2844 13.8C29.6844 13.8 30.9144 14.12 31.9744 14.76C33.0544 15.38 33.8944 16.31 34.4944 17.55C35.1144 18.77 35.4244 20.29 35.4244 22.11V23.04H24.1444C24.2244 24.26 24.6344 25.31 25.3744 26.19C26.1144 27.07 27.1344 27.51 28.4344 27.51C29.1744 27.51 29.7844 27.39 30.2644 27.15C30.7444 26.89 31.1144 26.6 31.3744 26.28C31.6344 25.96 31.8144 25.68 31.9144 25.44C32.0344 25.2 32.0944 25.08 32.0944 25.08H35.2744C35.2744 25.08 35.2244 25.26 35.1244 25.62C35.0244 25.96 34.8344 26.39 34.5544 26.91C34.2944 27.43 33.9144 27.95 33.4144 28.47C32.9144 28.99 32.2544 29.43 31.4344 29.79C30.6144 30.13 29.6144 30.3 28.4344 30.3ZM24.1744 20.64H32.1244C32.0444 19.24 31.6244 18.21 30.8644 17.55C30.1244 16.89 29.2544 16.56 28.2544 16.56C27.1344 16.56 26.2044 16.93 25.4644 17.67C24.7244 18.39 24.2944 19.38 24.1744 20.64ZM45.852 13.8C46.852 13.8 47.682 13.96 48.342 14.28C49.022 14.6 49.562 14.97 49.962 15.39C50.362 15.81 50.652 16.17 50.832 16.47H51.012V14.1H54.432V30H51.012V27.63H50.832C50.652 27.93 50.362 28.29 49.962 28.71C49.562 29.13 49.022 29.5 48.342 29.82C47.682 30.14 46.852 30.3 45.852 30.3C44.652 30.3 43.602 30.07 42.702 29.61C41.822 29.13 41.082 28.5 40.482 27.72C39.882 26.92 39.432 26.03 39.132 25.05C38.852 24.07 38.712 23.07 38.712 22.05C38.712 21.03 38.852 20.03 39.132 19.05C39.432 18.07 39.882 17.19 40.482 16.41C41.082 15.61 41.822 14.98 42.702 14.52C43.602 14.04 44.652 13.8 45.852 13.8ZM46.602 16.65C45.622 16.65 44.802 16.92 44.142 17.46C43.482 17.98 42.982 18.65 42.642 19.47C42.322 20.29 42.162 21.15 42.162 22.05C42.162 22.95 42.322 23.81 42.642 24.63C42.982 25.45 43.482 26.13 44.142 26.67C44.802 27.19 45.622 27.45 46.602 27.45C47.582 27.45 48.392 27.19 49.032 26.67C49.692 26.13 50.182 25.45 50.502 24.63C50.842 23.81 51.012 22.95 51.012 22.05C51.012 21.15 50.842 20.29 50.502 19.47C50.182 18.65 49.692 17.98 49.032 17.46C48.392 16.92 47.582 16.65 46.602 16.65ZM58.7351 30L58.7651 7.2H62.1551V30H58.7351Z" fill="black"/>
<path d="M66.7038 30V7.8H69.8838L80.7738 23.76V7.8H84.2838V30H81.0738L70.1838 14.19V30H66.7038ZM98.9623 30.3C97.1823 30.3 95.6123 29.98 94.2523 29.34C92.8923 28.68 91.7523 27.81 90.8323 26.73C89.9123 25.63 89.2223 24.4 88.7623 23.04C88.3023 21.68 88.0723 20.29 88.0723 18.87C88.0723 17.45 88.3023 16.07 88.7623 14.73C89.2223 13.37 89.9123 12.15 90.8323 11.07C91.7523 9.99 92.8923 9.13 94.2523 8.49C95.6123 7.83 97.1823 7.5 98.9623 7.5C100.762 7.5 102.342 7.83 103.702 8.49C105.062 9.13 106.202 9.99 107.122 11.07C108.042 12.15 108.732 13.37 109.192 14.73C109.652 16.07 109.882 17.45 109.882 18.87C109.882 20.29 109.652 21.68 109.192 23.04C108.732 24.4 108.042 25.63 107.122 26.73C106.202 27.81 105.062 28.68 103.702 29.34C102.342 29.98 100.762 30.3 98.9623 30.3ZM98.9623 27.09C100.562 27.09 101.902 26.7 102.982 25.92C104.062 25.12 104.882 24.1 105.442 22.86C106.002 21.6 106.282 20.27 106.282 18.87C106.282 17.83 106.122 16.83 105.802 15.87C105.482 14.89 105.012 14.01 104.392 13.23C103.792 12.45 103.032 11.84 102.112 11.4C101.212 10.94 100.162 10.71 98.9623 10.71C97.7823 10.71 96.7323 10.94 95.8123 11.4C94.9123 11.84 94.1523 12.45 93.5323 13.23C92.9323 14.01 92.4723 14.89 92.1523 15.87C91.8323 16.83 91.6723 17.83 91.6723 18.87C91.6723 20.27 91.9523 21.6 92.5123 22.86C93.0723 24.1 93.8923 25.12 94.9723 25.92C96.0523 26.7 97.3823 27.09 98.9623 27.09ZM117.671 30L111.881 7.8H115.451L119.801 25.08L124.391 7.8H127.901L132.491 25.05L136.811 7.8H140.381L134.591 30H130.391L126.131 13.92L121.871 30H117.671Z" fill="#F2F2F2"/>
<defs>
<linearGradient id="paint0_linear_25_2" x1="64" y1="1" x2="145.907" y2="29.2405" gradientUnits="userSpaceOnUse">
<stop stop-color="#11B12B"/>
<stop offset="1" stop-color="#0027F5"/>
</linearGradient>
</defs>
</svg>
